<svg width="1280" height="720" viewBox="0 0 1280 720" fill="none" xmlns="http://www.w3.org/2000/svg">
<rect x="20" y="20" width="100" height="100" fill="#D9D9D9"/>
<rect y="140" width="640" height="100" fill="#D9D9D9"/>
<rect x="20" y="260" width="1240" height="440" fill="#D9D9D9"/>
<rect x="640" y="140" width="640" height="100" fill="#ADADAD"/>
<path d="M45.9716 103.273V112H44.9148V104.381H44.8636L42.733 105.795V104.722L44.9148 103.273H45.9716ZM51.3281 112.119C50.6861 112.119 50.1392 111.945 49.6875 111.595C49.2358 111.243 48.8906 110.733 48.652 110.065C48.4134 109.395 48.294 108.585 48.294 107.636C48.294 106.693 48.4134 105.888 48.652 105.22C48.8935 104.55 49.2401 104.038 49.6918 103.686C50.1463 103.331 50.6918 103.153 51.3281 103.153C51.9645 103.153 52.5085 103.331 52.9602 103.686C53.4148 104.038 53.7614 104.55 54 105.22C54.2415 105.888 54.3622 106.693 54.3622 107.636C54.3622 108.585 54.2429 109.395 54.0043 110.065C53.7656 110.733 53.4205 111.243 52.9688 111.595C52.517 111.945 51.9702 112.119 51.3281 112.119ZM51.3281 111.182C51.9645 111.182 52.4588 110.875 52.8111 110.261C53.1634 109.648 53.3395 108.773 53.3395 107.636C53.3395 106.881 53.2585 106.237 53.0966 105.706C52.9375 105.175 52.7074 104.77 52.4062 104.491C52.108 104.213 51.7486 104.074 51.3281 104.074C50.6974 104.074 50.2045 104.385 49.8494 105.007C49.4943 105.626 49.3168 106.503 49.3168 107.636C49.3168 108.392 49.3963 109.034 49.5554 109.562C49.7145 110.091 49.9432 110.493 50.2415 110.768C50.5426 111.044 50.9048 111.182 51.3281 111.182ZM58.8281 112.119C58.1861 112.119 57.6392 111.945 57.1875 111.595C56.7358 111.243 56.3906 110.733 56.152 110.065C55.9134 109.395 55.794 108.585 55.794 107.636C55.794 106.693 55.9134 105.888 56.152 105.22C56.3935 104.55 56.7401 104.038 57.1918 103.686C57.6463 103.331 58.1918 103.153 58.8281 103.153C59.4645 103.153 60.0085 103.331 60.4602 103.686C60.9148 104.038 61.2614 104.55 61.5 105.22C61.7415 105.888 61.8622 106.693 61.8622 107.636C61.8622 108.585 61.7429 109.395 61.5043 110.065C61.2656 110.733 60.9205 111.243 60.4688 111.595C60.017 111.945 59.4702 112.119 58.8281 112.119ZM58.8281 111.182C59.4645 111.182 59.9588 110.875 60.3111 110.261C60.6634 109.648 60.8395 108.773 60.8395 107.636C60.8395 106.881 60.7585 106.237 60.5966 105.706C60.4375 105.175 60.2074 104.77 59.9062 104.491C59.608 104.213 59.2486 104.074 58.8281 104.074C58.1974 104.074 57.7045 104.385 57.3494 105.007C56.9943 105.626 56.8168 106.503 56.8168 107.636C56.8168 108.392 56.8963 109.034 57.0554 109.562C57.2145 110.091 57.4432 110.493 57.7415 110.768C58.0426 111.044 58.4048 111.182 58.8281 111.182ZM71.9872 110.432L67.1804 105.625L67.8281 104.977L72.6349 109.784L71.9872 110.432ZM67.8281 110.432L67.1804 109.784L71.9872 104.977L72.6349 105.625L67.8281 110.432ZM81.2099 103.273V112H80.1531V104.381H80.1019L77.9712 105.795V104.722L80.1531 103.273H81.2099ZM86.5664 112.119C85.9244 112.119 85.3775 111.945 84.9258 111.595C84.4741 111.243 84.1289 110.733 83.8903 110.065C83.6516 109.395 83.5323 108.585 83.5323 107.636C83.5323 106.693 83.6516 105.888 83.8903 105.22C84.1317 104.55 84.4783 104.038 84.93 103.686C85.3846 103.331 85.93 103.153 86.5664 103.153C87.2028 103.153 87.7468 103.331 88.1985 103.686C88.6531 104.038 88.9996 104.55 89.2383 105.22C89.4798 105.888 89.6005 106.693 89.6005 107.636C89.6005 108.585 89.4812 109.395 89.2425 110.065C89.0039 110.733 88.6587 111.243 88.207 111.595C87.7553 111.945 87.2085 112.119 86.5664 112.119ZM86.5664 111.182C87.2028 111.182 87.6971 110.875 88.0494 110.261C88.4016 109.648 88.5778 108.773 88.5778 107.636C88.5778 106.881 88.4968 106.237 88.3349 105.706C88.1758 105.175 87.9457 104.77 87.6445 104.491C87.3462 104.213 86.9869 104.074 86.5664 104.074C85.9357 104.074 85.4428 104.385 85.0877 105.007C84.7326 105.626 84.555 106.503 84.555 107.636C84.555 108.392 84.6346 109.034 84.7937 109.562C84.9528 110.091 85.1815 110.493 85.4798 110.768C85.7809 111.044 86.1431 111.182 86.5664 111.182ZM94.0664 112.119C93.4244 112.119 92.8775 111.945 92.4258 111.595C91.9741 111.243 91.6289 110.733 91.3903 110.065C91.1516 109.395 91.0323 108.585 91.0323 107.636C91.0323 106.693 91.1516 105.888 91.3903 105.22C91.6317 104.55 91.9783 104.038 92.43 103.686C92.8846 103.331 93.43 103.153 94.0664 103.153C94.7028 103.153 95.2468 103.331 95.6985 103.686C96.1531 104.038 96.4996 104.55 96.7383 105.22C96.9798 105.888 97.1005 106.693 97.1005 107.636C97.1005 108.585 96.9812 109.395 96.7425 110.065C96.5039 110.733 96.1587 111.243 95.707 111.595C95.2553 111.945 94.7085 112.119 94.0664 112.119ZM94.0664 111.182C94.7028 111.182 95.1971 110.875 95.5494 110.261C95.9016 109.648 96.0778 108.773 96.0778 107.636C96.0778 106.881 95.9968 106.237 95.8349 105.706C95.6758 105.175 95.4457 104.77 95.1445 104.491C94.8462 104.213 94.4869 104.074 94.0664 104.074C93.4357 104.074 92.9428 104.385 92.5877 105.007C92.2326 105.626 92.055 106.503 92.055 107.636C92.055 108.392 92.1346 109.034 92.2937 109.562C92.4528 110.091 92.6815 110.493 92.9798 110.768C93.2809 111.044 93.6431 111.182 94.0664 111.182Z" fill="black"/>
<path d="M295.801 227.119C295.443 227.114 295.085 227.045 294.727 226.915C294.369 226.784 294.043 226.564 293.747 226.254C293.452 225.942 293.214 225.52 293.036 224.989C292.857 224.455 292.767 223.784 292.767 222.977C292.767 222.205 292.839 221.52 292.984 220.923C293.129 220.324 293.339 219.82 293.615 219.411C293.891 218.999 294.223 218.686 294.612 218.473C295.004 218.26 295.446 218.153 295.938 218.153C296.426 218.153 296.861 218.251 297.241 218.447C297.625 218.641 297.938 218.911 298.179 219.257C298.42 219.604 298.577 220.003 298.648 220.455H297.608C297.511 220.062 297.324 219.737 297.045 219.479C296.767 219.22 296.398 219.091 295.938 219.091C295.261 219.091 294.729 219.385 294.339 219.973C293.953 220.561 293.759 221.386 293.756 222.449H293.824C293.983 222.207 294.172 222.001 294.391 221.831C294.612 221.658 294.857 221.524 295.124 221.43C295.391 221.337 295.673 221.29 295.972 221.29C296.472 221.29 296.929 221.415 297.344 221.665C297.759 221.912 298.091 222.254 298.341 222.692C298.591 223.126 298.716 223.625 298.716 224.188C298.716 224.727 298.595 225.222 298.354 225.67C298.112 226.116 297.773 226.472 297.335 226.736C296.901 226.997 296.389 227.125 295.801 227.119ZM295.801 226.182C296.159 226.182 296.48 226.092 296.764 225.913C297.051 225.734 297.277 225.494 297.442 225.193C297.609 224.892 297.693 224.557 297.693 224.188C297.693 223.827 297.612 223.499 297.45 223.203C297.291 222.905 297.071 222.668 296.79 222.491C296.511 222.315 296.193 222.227 295.835 222.227C295.565 222.227 295.314 222.281 295.081 222.389C294.848 222.494 294.643 222.639 294.467 222.824C294.294 223.009 294.158 223.22 294.058 223.459C293.959 223.695 293.909 223.943 293.909 224.205C293.909 224.551 293.99 224.875 294.152 225.176C294.317 225.477 294.541 225.72 294.825 225.905C295.112 226.089 295.438 226.182 295.801 226.182ZM300.187 225.21V224.341L304.022 218.273H304.653V219.619H304.227L301.329 224.205V224.273H306.494V225.21H300.187ZM304.295 227V224.946V224.541V218.273H305.301V227H304.295ZM310.938 227.119C310.295 227.119 309.749 226.945 309.297 226.595C308.845 226.243 308.5 225.733 308.261 225.065C308.023 224.395 307.903 223.585 307.903 222.636C307.903 221.693 308.023 220.888 308.261 220.22C308.503 219.55 308.849 219.038 309.301 218.686C309.756 218.331 310.301 218.153 310.938 218.153C311.574 218.153 312.118 218.331 312.57 218.686C313.024 219.038 313.371 219.55 313.609 220.22C313.851 220.888 313.972 221.693 313.972 222.636C313.972 223.585 313.852 224.395 313.614 225.065C313.375 225.733 313.03 226.243 312.578 226.595C312.126 226.945 311.58 227.119 310.938 227.119ZM310.938 226.182C311.574 226.182 312.068 225.875 312.42 225.261C312.773 224.648 312.949 223.773 312.949 222.636C312.949 221.881 312.868 221.237 312.706 220.706C312.547 220.175 312.317 219.77 312.016 219.491C311.717 219.213 311.358 219.074 310.938 219.074C310.307 219.074 309.814 219.385 309.459 220.007C309.104 220.626 308.926 221.503 308.926 222.636C308.926 223.392 309.006 224.034 309.165 224.562C309.324 225.091 309.553 225.493 309.851 225.768C310.152 226.044 310.514 226.182 310.938 226.182ZM324.097 225.432L319.29 220.625L319.938 219.977L324.744 224.784L324.097 225.432ZM319.938 225.432L319.29 224.784L324.097 219.977L324.744 220.625L319.938 225.432ZM333.319 218.273V227H332.262V219.381H332.211L330.081 220.795V219.722L332.262 218.273H333.319ZM338.676 227.119C338.034 227.119 337.487 226.945 337.035 226.595C336.583 226.243 336.238 225.733 336 225.065C335.761 224.395 335.642 223.585 335.642 222.636C335.642 221.693 335.761 220.888 336 220.22C336.241 219.55 336.588 219.038 337.039 218.686C337.494 218.331 338.039 218.153 338.676 218.153C339.312 218.153 339.856 218.331 340.308 218.686C340.762 219.038 341.109 219.55 341.348 220.22C341.589 220.888 341.71 221.693 341.71 222.636C341.71 223.585 341.591 224.395 341.352 225.065C341.113 225.733 340.768 226.243 340.316 226.595C339.865 226.945 339.318 227.119 338.676 227.119ZM338.676 226.182C339.312 226.182 339.806 225.875 340.159 225.261C340.511 224.648 340.687 223.773 340.687 222.636C340.687 221.881 340.606 221.237 340.444 220.706C340.285 220.175 340.055 219.77 339.754 219.491C339.456 219.213 339.096 219.074 338.676 219.074C338.045 219.074 337.552 219.385 337.197 220.007C336.842 220.626 336.664 221.503 336.664 222.636C336.664 223.392 336.744 224.034 336.903 224.562C337.062 225.091 337.291 225.493 337.589 225.768C337.89 226.044 338.252 226.182 338.676 226.182ZM346.176 227.119C345.534 227.119 344.987 226.945 344.535 226.595C344.083 226.243 343.738 225.733 343.5 225.065C343.261 224.395 343.142 223.585 343.142 222.636C343.142 221.693 343.261 220.888 343.5 220.22C343.741 219.55 344.088 219.038 344.539 218.686C344.994 218.331 345.539 218.153 346.176 218.153C346.812 218.153 347.356 218.331 347.808 218.686C348.262 219.038 348.609 219.55 348.848 220.22C349.089 220.888 349.21 221.693 349.21 222.636C349.21 223.585 349.091 224.395 348.852 225.065C348.613 225.733 348.268 226.243 347.816 226.595C347.365 226.945 346.818 227.119 346.176 227.119ZM346.176 226.182C346.812 226.182 347.306 225.875 347.659 225.261C348.011 224.648 348.187 223.773 348.187 222.636C348.187 221.881 348.106 221.237 347.944 220.706C347.785 220.175 347.555 219.77 347.254 219.491C346.956 219.213 346.596 219.074 346.176 219.074C345.545 219.074 345.052 219.385 344.697 220.007C344.342 220.626 344.164 221.503 344.164 222.636C344.164 223.392 344.244 224.034 344.403 224.562C344.562 225.091 344.791 225.493 345.089 225.768C345.39 226.044 345.752 226.182 346.176 226.182Z" fill="black"/>
<path d="M610.972 668.273V677H609.915V669.381H609.864L607.733 670.795V669.722L609.915 668.273H610.972ZM613.482 677V676.233L616.362 673.08C616.7 672.71 616.979 672.389 617.197 672.116C617.416 671.841 617.578 671.582 617.683 671.341C617.791 671.097 617.845 670.841 617.845 670.574C617.845 670.267 617.771 670.001 617.624 669.777C617.479 669.553 617.28 669.379 617.027 669.257C616.774 669.135 616.49 669.074 616.175 669.074C615.839 669.074 615.547 669.143 615.297 669.283C615.05 669.419 614.858 669.611 614.722 669.858C614.588 670.105 614.521 670.395 614.521 670.727H613.516C613.516 670.216 613.634 669.767 613.869 669.381C614.105 668.994 614.426 668.693 614.832 668.477C615.241 668.261 615.7 668.153 616.209 668.153C616.72 668.153 617.173 668.261 617.568 668.477C617.963 668.693 618.273 668.984 618.497 669.351C618.722 669.717 618.834 670.125 618.834 670.574C618.834 670.895 618.776 671.209 618.659 671.516C618.545 671.82 618.347 672.159 618.062 672.534C617.781 672.906 617.391 673.361 616.891 673.898L614.93 675.994V676.062H618.987V677H613.482ZM620.355 675.21V674.341L624.19 668.273H624.821V669.619H624.395L621.497 674.205V674.273H626.662V675.21H620.355ZM624.463 677V674.946V674.541V668.273H625.469V677H624.463ZM631.105 677.119C630.463 677.119 629.917 676.945 629.465 676.595C629.013 676.243 628.668 675.733 628.429 675.065C628.191 674.395 628.071 673.585 628.071 672.636C628.071 671.693 628.191 670.888 628.429 670.22C628.671 669.55 629.017 669.038 629.469 668.686C629.924 668.331 630.469 668.153 631.105 668.153C631.742 668.153 632.286 668.331 632.738 668.686C633.192 669.038 633.539 669.55 633.777 670.22C634.019 670.888 634.14 671.693 634.14 672.636C634.14 673.585 634.02 674.395 633.782 675.065C633.543 675.733 633.198 676.243 632.746 676.595C632.294 676.945 631.748 677.119 631.105 677.119ZM631.105 676.182C631.742 676.182 632.236 675.875 632.588 675.261C632.941 674.648 633.117 673.773 633.117 672.636C633.117 671.881 633.036 671.237 632.874 670.706C632.715 670.175 632.485 669.77 632.184 669.491C631.885 669.213 631.526 669.074 631.105 669.074C630.475 669.074 629.982 669.385 629.627 670.007C629.272 670.626 629.094 671.503 629.094 672.636C629.094 673.392 629.174 674.034 629.333 674.562C629.492 675.091 629.721 675.493 630.019 675.768C630.32 676.044 630.682 676.182 631.105 676.182ZM644.265 675.432L639.458 670.625L640.105 669.977L644.912 674.784L644.265 675.432ZM640.105 675.432L639.458 674.784L644.265 669.977L644.912 670.625L640.105 675.432ZM650.214 675.21V674.341L654.05 668.273H654.68V669.619H654.254L651.357 674.205V674.273H656.521V675.21H650.214ZM654.322 677V674.946V674.541V668.273H655.328V677H654.322ZM657.914 675.21V674.341L661.749 668.273H662.38V669.619H661.953L659.056 674.205V674.273H664.221V675.21H657.914ZM662.022 677V674.946V674.541V668.273H663.027V677H662.022ZM668.664 677.119C668.022 677.119 667.475 676.945 667.023 676.595C666.572 676.243 666.227 675.733 665.988 675.065C665.749 674.395 665.63 673.585 665.63 672.636C665.63 671.693 665.749 670.888 665.988 670.22C666.229 669.55 666.576 669.038 667.028 668.686C667.482 668.331 668.028 668.153 668.664 668.153C669.3 668.153 669.844 668.331 670.296 668.686C670.751 669.038 671.097 669.55 671.336 670.22C671.577 670.888 671.698 671.693 671.698 672.636C671.698 673.585 671.579 674.395 671.34 675.065C671.102 675.733 670.756 676.243 670.305 676.595C669.853 676.945 669.306 677.119 668.664 677.119ZM668.664 676.182C669.3 676.182 669.795 675.875 670.147 675.261C670.499 674.648 670.675 673.773 670.675 672.636C670.675 671.881 670.594 671.237 670.433 670.706C670.273 670.175 670.043 669.77 669.742 669.491C669.444 669.213 669.085 669.074 668.664 669.074C668.033 669.074 667.54 669.385 667.185 670.007C666.83 670.626 666.653 671.503 666.653 672.636C666.653 673.392 666.732 674.034 666.891 674.562C667.05 675.091 667.279 675.493 667.577 675.768C667.879 676.044 668.241 676.182 668.664 676.182Z" fill="black"/>
<path d="M934.801 227.119C934.443 227.114 934.085 227.045 933.727 226.915C933.369 226.784 933.043 226.564 932.747 226.254C932.452 225.942 932.214 225.52 932.036 224.989C931.857 224.455 931.767 223.784 931.767 222.977C931.767 222.205 931.839 221.52 931.984 220.923C932.129 220.324 932.339 219.82 932.615 219.411C932.891 218.999 933.223 218.686 933.612 218.473C934.004 218.26 934.446 218.153 934.938 218.153C935.426 218.153 935.861 218.251 936.241 218.447C936.625 218.641 936.938 218.911 937.179 219.257C937.42 219.604 937.577 220.003 937.648 220.455H936.608C936.511 220.062 936.324 219.737 936.045 219.479C935.767 219.22 935.398 219.091 934.938 219.091C934.261 219.091 933.729 219.385 933.339 219.973C932.953 220.561 932.759 221.386 932.756 222.449H932.824C932.983 222.207 933.172 222.001 933.391 221.831C933.612 221.658 933.857 221.524 934.124 221.43C934.391 221.337 934.673 221.29 934.972 221.29C935.472 221.29 935.929 221.415 936.344 221.665C936.759 221.912 937.091 222.254 937.341 222.692C937.591 223.126 937.716 223.625 937.716 224.188C937.716 224.727 937.595 225.222 937.354 225.67C937.112 226.116 936.773 226.472 936.335 226.736C935.901 226.997 935.389 227.125 934.801 227.119ZM934.801 226.182C935.159 226.182 935.48 226.092 935.764 225.913C936.051 225.734 936.277 225.494 936.442 225.193C936.609 224.892 936.693 224.557 936.693 224.188C936.693 223.827 936.612 223.499 936.45 223.203C936.291 222.905 936.071 222.668 935.79 222.491C935.511 222.315 935.193 222.227 934.835 222.227C934.565 222.227 934.314 222.281 934.081 222.389C933.848 222.494 933.643 222.639 933.467 222.824C933.294 223.009 933.158 223.22 933.058 223.459C932.959 223.695 932.909 223.943 932.909 224.205C932.909 224.551 932.99 224.875 933.152 225.176C933.317 225.477 933.541 225.72 933.825 225.905C934.112 226.089 934.438 226.182 934.801 226.182ZM939.187 225.21V224.341L943.022 218.273H943.653V219.619H943.227L940.329 224.205V224.273H945.494V225.21H939.187ZM943.295 227V224.946V224.541V218.273H944.301V227H943.295ZM949.938 227.119C949.295 227.119 948.749 226.945 948.297 226.595C947.845 226.243 947.5 225.733 947.261 225.065C947.023 224.395 946.903 223.585 946.903 222.636C946.903 221.693 947.023 220.888 947.261 220.22C947.503 219.55 947.849 219.038 948.301 218.686C948.756 218.331 949.301 218.153 949.938 218.153C950.574 218.153 951.118 218.331 951.57 218.686C952.024 219.038 952.371 219.55 952.609 220.22C952.851 220.888 952.972 221.693 952.972 222.636C952.972 223.585 952.852 224.395 952.614 225.065C952.375 225.733 952.03 226.243 951.578 226.595C951.126 226.945 950.58 227.119 949.938 227.119ZM949.938 226.182C950.574 226.182 951.068 225.875 951.42 225.261C951.773 224.648 951.949 223.773 951.949 222.636C951.949 221.881 951.868 221.237 951.706 220.706C951.547 220.175 951.317 219.77 951.016 219.491C950.717 219.213 950.358 219.074 949.938 219.074C949.307 219.074 948.814 219.385 948.459 220.007C948.104 220.626 947.926 221.503 947.926 222.636C947.926 223.392 948.006 224.034 948.165 224.562C948.324 225.091 948.553 225.493 948.851 225.768C949.152 226.044 949.514 226.182 949.938 226.182ZM963.097 225.432L958.29 220.625L958.938 219.977L963.744 224.784L963.097 225.432ZM958.938 225.432L958.29 224.784L963.097 219.977L963.744 220.625L958.938 225.432ZM972.319 218.273V227H971.262V219.381H971.211L969.081 220.795V219.722L971.262 218.273H972.319ZM977.676 227.119C977.034 227.119 976.487 226.945 976.035 226.595C975.583 226.243 975.238 225.733 975 225.065C974.761 224.395 974.642 223.585 974.642 222.636C974.642 221.693 974.761 220.888 975 220.22C975.241 219.55 975.588 219.038 976.039 218.686C976.494 218.331 977.039 218.153 977.676 218.153C978.312 218.153 978.856 218.331 979.308 218.686C979.762 219.038 980.109 219.55 980.348 220.22C980.589 220.888 980.71 221.693 980.71 222.636C980.71 223.585 980.591 224.395 980.352 225.065C980.113 225.733 979.768 226.243 979.316 226.595C978.865 226.945 978.318 227.119 977.676 227.119ZM977.676 226.182C978.312 226.182 978.806 225.875 979.159 225.261C979.511 224.648 979.687 223.773 979.687 222.636C979.687 221.881 979.606 221.237 979.444 220.706C979.285 220.175 979.055 219.77 978.754 219.491C978.456 219.213 978.096 219.074 977.676 219.074C977.045 219.074 976.552 219.385 976.197 220.007C975.842 220.626 975.664 221.503 975.664 222.636C975.664 223.392 975.744 224.034 975.903 224.562C976.062 225.091 976.291 225.493 976.589 225.768C976.89 226.044 977.252 226.182 977.676 226.182ZM985.176 227.119C984.534 227.119 983.987 226.945 983.535 226.595C983.083 226.243 982.738 225.733 982.5 225.065C982.261 224.395 982.142 223.585 982.142 222.636C982.142 221.693 982.261 220.888 982.5 220.22C982.741 219.55 983.088 219.038 983.539 218.686C983.994 218.331 984.539 218.153 985.176 218.153C985.812 218.153 986.356 218.331 986.808 218.686C987.262 219.038 987.609 219.55 987.848 220.22C988.089 220.888 988.21 221.693 988.21 222.636C988.21 223.585 988.091 224.395 987.852 225.065C987.613 225.733 987.268 226.243 986.816 226.595C986.365 226.945 985.818 227.119 985.176 227.119ZM985.176 226.182C985.812 226.182 986.306 225.875 986.659 225.261C987.011 224.648 987.187 223.773 987.187 222.636C987.187 221.881 987.106 221.237 986.944 220.706C986.785 220.175 986.555 219.77 986.254 219.491C985.956 219.213 985.596 219.074 985.176 219.074C984.545 219.074 984.052 219.385 983.697 220.007C983.342 220.626 983.164 221.503 983.164 222.636C983.164 223.392 983.244 224.034 983.403 224.562C983.562 225.091 983.791 225.493 984.089 225.768C984.39 226.044 984.752 226.182 985.176 226.182Z" fill="black"/>
<path d="M54.9034 15V14.233L57.7841 11.0795C58.1222 10.7102 58.4006 10.3892 58.6193 10.1165C58.8381 9.84091 59 9.58239 59.1051 9.34091C59.2131 9.09659 59.267 8.84091 59.267 8.57386C59.267 8.26705 59.1932 8.00142 59.0455 7.77699C58.9006 7.55256 58.7017 7.37926 58.4489 7.2571C58.196 7.13494 57.9119 7.07386 57.5966 7.07386C57.2614 7.07386 56.9688 7.14347 56.7188 7.28267C56.4716 7.41903 56.2798 7.6108 56.1435 7.85795C56.0099 8.10511 55.9432 8.39489 55.9432 8.72727H54.9375C54.9375 8.21591 55.0554 7.76705 55.2912 7.38068C55.527 6.99432 55.848 6.69318 56.2543 6.47727C56.6634 6.26136 57.1222 6.15341 57.6307 6.15341C58.142 6.15341 58.5952 6.26136 58.9901 6.47727C59.3849 6.69318 59.6946 6.98437 59.919 7.35085C60.1435 7.71733 60.2557 8.125 60.2557 8.57386C60.2557 8.89489 60.1974 9.20881 60.081 9.51562C59.9673 9.8196 59.7685 10.1591 59.4844 10.5341C59.2031 10.9062 58.8125 11.3608 58.3125 11.8977L56.3523 13.9943V14.0625H60.4091V15H54.9034ZM65.0156 15.1193C64.3736 15.1193 63.8267 14.9446 63.375 14.5952C62.9233 14.2429 62.5781 13.733 62.3395 13.0653C62.1009 12.3949 61.9815 11.5852 61.9815 10.6364C61.9815 9.69318 62.1009 8.88778 62.3395 8.22017C62.581 7.54972 62.9276 7.03835 63.3793 6.68608C63.8338 6.33097 64.3793 6.15341 65.0156 6.15341C65.652 6.15341 66.196 6.33097 66.6477 6.68608C67.1023 7.03835 67.4489 7.54972 67.6875 8.22017C67.929 8.88778 68.0497 9.69318 68.0497 10.6364C68.0497 11.5852 67.9304 12.3949 67.6918 13.0653C67.4531 13.733 67.108 14.2429 66.6562 14.5952C66.2045 14.9446 65.6577 15.1193 65.0156 15.1193ZM65.0156 14.1818C65.652 14.1818 66.1463 13.875 66.4986 13.2614C66.8509 12.6477 67.027 11.7727 67.027 10.6364C67.027 9.88068 66.946 9.23722 66.7841 8.70597C66.625 8.17472 66.3949 7.76989 66.0938 7.49148C65.7955 7.21307 65.4361 7.07386 65.0156 7.07386C64.3849 7.07386 63.892 7.38494 63.5369 8.0071C63.1818 8.62642 63.0043 9.50284 63.0043 10.6364C63.0043 11.392 63.0838 12.0341 63.2429 12.5625C63.402 13.0909 63.6307 13.4929 63.929 13.7685C64.2301 14.044 64.5923 14.1818 65.0156 14.1818ZM73.0611 17.4545V8.45455H74.0327V9.49432H74.152C74.2259 9.38068 74.3281 9.2358 74.4588 9.05966C74.5923 8.88068 74.7827 8.72159 75.0298 8.58239C75.2798 8.44034 75.6179 8.36932 76.044 8.36932C76.5952 8.36932 77.081 8.5071 77.5014 8.78267C77.9219 9.05824 78.25 9.44886 78.4858 9.95455C78.7216 10.4602 78.8395 11.0568 78.8395 11.7443C78.8395 12.4375 78.7216 13.0384 78.4858 13.5469C78.25 14.0526 77.9233 14.4446 77.5057 14.723C77.0881 14.9986 76.6065 15.1364 76.0611 15.1364C75.6406 15.1364 75.304 15.0668 75.0511 14.9276C74.7983 14.7855 74.6037 14.625 74.4673 14.446C74.331 14.2642 74.2259 14.1136 74.152 13.9943H74.0668V17.4545H73.0611ZM74.0497 11.7273C74.0497 12.2216 74.1222 12.6577 74.267 13.0355C74.4119 13.4105 74.6236 13.7045 74.902 13.9176C75.1804 14.1278 75.5213 14.233 75.9247 14.233C76.3452 14.233 76.696 14.1222 76.9773 13.9006C77.2614 13.6761 77.4744 13.375 77.6165 12.9972C77.7614 12.6165 77.8338 12.1932 77.8338 11.7273C77.8338 11.267 77.7628 10.8523 77.6207 10.483C77.4815 10.1108 77.2699 9.81676 76.9858 9.60085C76.7045 9.3821 76.3509 9.27273 75.9247 9.27273C75.5156 9.27273 75.1719 9.37642 74.8935 9.58381C74.6151 9.78835 74.4048 10.0753 74.2628 10.4446C74.1207 10.8111 74.0497 11.2386 74.0497 11.7273ZM80.854 8.45455L82.4222 11.1307L83.9904 8.45455H85.1495L83.0359 11.7273L85.1495 15H83.9904L82.4222 12.4602L80.854 15H79.695L81.7745 11.7273L79.695 8.45455H80.854Z" fill="black"/>
<path d="M624.903 252V251.233L627.784 248.08C628.122 247.71 628.401 247.389 628.619 247.116C628.838 246.841 629 246.582 629.105 246.341C629.213 246.097 629.267 245.841 629.267 245.574C629.267 245.267 629.193 245.001 629.045 244.777C628.901 244.553 628.702 244.379 628.449 244.257C628.196 244.135 627.912 244.074 627.597 244.074C627.261 244.074 626.969 244.143 626.719 244.283C626.472 244.419 626.28 244.611 626.143 244.858C626.01 245.105 625.943 245.395 625.943 245.727H624.938C624.938 245.216 625.055 244.767 625.291 244.381C625.527 243.994 625.848 243.693 626.254 243.477C626.663 243.261 627.122 243.153 627.631 243.153C628.142 243.153 628.595 243.261 628.99 243.477C629.385 243.693 629.695 243.984 629.919 244.351C630.143 244.717 630.256 245.125 630.256 245.574C630.256 245.895 630.197 246.209 630.081 246.516C629.967 246.82 629.768 247.159 629.484 247.534C629.203 247.906 628.812 248.361 628.312 248.898L626.352 250.994V251.062H630.409V252H624.903ZM635.016 252.119C634.374 252.119 633.827 251.945 633.375 251.595C632.923 251.243 632.578 250.733 632.339 250.065C632.101 249.395 631.982 248.585 631.982 247.636C631.982 246.693 632.101 245.888 632.339 245.22C632.581 244.55 632.928 244.038 633.379 243.686C633.834 243.331 634.379 243.153 635.016 243.153C635.652 243.153 636.196 243.331 636.648 243.686C637.102 244.038 637.449 244.55 637.688 245.22C637.929 245.888 638.05 246.693 638.05 247.636C638.05 248.585 637.93 249.395 637.692 250.065C637.453 250.733 637.108 251.243 636.656 251.595C636.205 251.945 635.658 252.119 635.016 252.119ZM635.016 251.182C635.652 251.182 636.146 250.875 636.499 250.261C636.851 249.648 637.027 248.773 637.027 247.636C637.027 246.881 636.946 246.237 636.784 245.706C636.625 245.175 636.395 244.77 636.094 244.491C635.795 244.213 635.436 244.074 635.016 244.074C634.385 244.074 633.892 244.385 633.537 245.007C633.182 245.626 633.004 246.503 633.004 247.636C633.004 248.392 633.084 249.034 633.243 249.562C633.402 250.091 633.631 250.493 633.929 250.768C634.23 251.044 634.592 251.182 635.016 251.182ZM643.061 254.455V245.455H644.033V246.494H644.152C644.226 246.381 644.328 246.236 644.459 246.06C644.592 245.881 644.783 245.722 645.03 245.582C645.28 245.44 645.618 245.369 646.044 245.369C646.595 245.369 647.081 245.507 647.501 245.783C647.922 246.058 648.25 246.449 648.486 246.955C648.722 247.46 648.839 248.057 648.839 248.744C648.839 249.438 648.722 250.038 648.486 250.547C648.25 251.053 647.923 251.445 647.506 251.723C647.088 251.999 646.607 252.136 646.061 252.136C645.641 252.136 645.304 252.067 645.051 251.928C644.798 251.786 644.604 251.625 644.467 251.446C644.331 251.264 644.226 251.114 644.152 250.994H644.067V254.455H643.061ZM644.05 248.727C644.05 249.222 644.122 249.658 644.267 250.036C644.412 250.411 644.624 250.705 644.902 250.918C645.18 251.128 645.521 251.233 645.925 251.233C646.345 251.233 646.696 251.122 646.977 250.901C647.261 250.676 647.474 250.375 647.616 249.997C647.761 249.616 647.834 249.193 647.834 248.727C647.834 248.267 647.763 247.852 647.621 247.483C647.482 247.111 647.27 246.817 646.986 246.601C646.705 246.382 646.351 246.273 645.925 246.273C645.516 246.273 645.172 246.376 644.893 246.584C644.615 246.788 644.405 247.075 644.263 247.445C644.121 247.811 644.05 248.239 644.05 248.727ZM650.854 245.455L652.422 248.131L653.99 245.455H655.15L653.036 248.727L655.15 252H653.99L652.422 249.46L650.854 252H649.695L651.775 248.727L649.695 245.455H650.854Z" fill="black"/>
<path d="M624.903 712V711.233L627.784 708.08C628.122 707.71 628.401 707.389 628.619 707.116C628.838 706.841 629 706.582 629.105 706.341C629.213 706.097 629.267 705.841 629.267 705.574C629.267 705.267 629.193 705.001 629.045 704.777C628.901 704.553 628.702 704.379 628.449 704.257C628.196 704.135 627.912 704.074 627.597 704.074C627.261 704.074 626.969 704.143 626.719 704.283C626.472 704.419 626.28 704.611 626.143 704.858C626.01 705.105 625.943 705.395 625.943 705.727H624.938C624.938 705.216 625.055 704.767 625.291 704.381C625.527 703.994 625.848 703.693 626.254 703.477C626.663 703.261 627.122 703.153 627.631 703.153C628.142 703.153 628.595 703.261 628.99 703.477C629.385 703.693 629.695 703.984 629.919 704.351C630.143 704.717 630.256 705.125 630.256 705.574C630.256 705.895 630.197 706.209 630.081 706.516C629.967 706.82 629.768 707.159 629.484 707.534C629.203 707.906 628.812 708.361 628.312 708.898L626.352 710.994V711.062H630.409V712H624.903ZM635.016 712.119C634.374 712.119 633.827 711.945 633.375 711.595C632.923 711.243 632.578 710.733 632.339 710.065C632.101 709.395 631.982 708.585 631.982 707.636C631.982 706.693 632.101 705.888 632.339 705.22C632.581 704.55 632.928 704.038 633.379 703.686C633.834 703.331 634.379 703.153 635.016 703.153C635.652 703.153 636.196 703.331 636.648 703.686C637.102 704.038 637.449 704.55 637.688 705.22C637.929 705.888 638.05 706.693 638.05 707.636C638.05 708.585 637.93 709.395 637.692 710.065C637.453 710.733 637.108 711.243 636.656 711.595C636.205 711.945 635.658 712.119 635.016 712.119ZM635.016 711.182C635.652 711.182 636.146 710.875 636.499 710.261C636.851 709.648 637.027 708.773 637.027 707.636C637.027 706.881 636.946 706.237 636.784 705.706C636.625 705.175 636.395 704.77 636.094 704.491C635.795 704.213 635.436 704.074 635.016 704.074C634.385 704.074 633.892 704.385 633.537 705.007C633.182 705.626 633.004 706.503 633.004 707.636C633.004 708.392 633.084 709.034 633.243 709.562C633.402 710.091 633.631 710.493 633.929 710.768C634.23 711.044 634.592 711.182 635.016 711.182ZM643.061 714.455V705.455H644.033V706.494H644.152C644.226 706.381 644.328 706.236 644.459 706.06C644.592 705.881 644.783 705.722 645.03 705.582C645.28 705.44 645.618 705.369 646.044 705.369C646.595 705.369 647.081 705.507 647.501 705.783C647.922 706.058 648.25 706.449 648.486 706.955C648.722 707.46 648.839 708.057 648.839 708.744C648.839 709.438 648.722 710.038 648.486 710.547C648.25 711.053 647.923 711.445 647.506 711.723C647.088 711.999 646.607 712.136 646.061 712.136C645.641 712.136 645.304 712.067 645.051 711.928C644.798 711.786 644.604 711.625 644.467 711.446C644.331 711.264 644.226 711.114 644.152 710.994H644.067V714.455H643.061ZM644.05 708.727C644.05 709.222 644.122 709.658 644.267 710.036C644.412 710.411 644.624 710.705 644.902 710.918C645.18 711.128 645.521 711.233 645.925 711.233C646.345 711.233 646.696 711.122 646.977 710.901C647.261 710.676 647.474 710.375 647.616 709.997C647.761 709.616 647.834 709.193 647.834 708.727C647.834 708.267 647.763 707.852 647.621 707.483C647.482 707.111 647.27 706.817 646.986 706.601C646.705 706.382 646.351 706.273 645.925 706.273C645.516 706.273 645.172 706.376 644.893 706.584C644.615 706.788 644.405 707.075 644.263 707.445C644.121 707.811 644.05 708.239 644.05 708.727ZM650.854 705.455L652.422 708.131L653.99 705.455H655.15L653.036 708.727L655.15 712H653.99L652.422 709.46L650.854 712H649.695L651.775 708.727L649.695 705.455H650.854Z" fill="black"/>
<path d="M15 80.0966L14.233 80.0966L11.0795 77.2159C10.7102 76.8778 10.3892 76.5994 10.1165 76.3807C9.84091 76.1619 9.58239 76 9.34091 75.8949C9.09659 75.7869 8.84091 75.733 8.57386 75.733C8.26705 75.733 8.00142 75.8068 7.77699 75.9545C7.55256 76.0994 7.37926 76.2983 7.2571 76.5511C7.13494 76.804 7.07386 77.0881 7.07386 77.4034C7.07386 77.7386 7.14347 78.0312 7.28267 78.2812C7.41903 78.5284 7.61079 78.7202 7.85795 78.8565C8.10511 78.9901 8.39489 79.0568 8.72727 79.0568L8.72727 80.0625C8.21591 80.0625 7.76705 79.9446 7.38068 79.7088C6.99432 79.473 6.69318 79.152 6.47727 78.7457C6.26136 78.3366 6.15341 77.8778 6.15341 77.3693C6.15341 76.858 6.26136 76.4048 6.47727 76.0099C6.69318 75.6151 6.98437 75.3054 7.35085 75.081C7.71733 74.8565 8.125 74.7443 8.57386 74.7443C8.89489 74.7443 9.20881 74.8026 9.51562 74.919C9.8196 75.0327 10.1591 75.2315 10.5341 75.5156C10.9062 75.7969 11.3608 76.1875 11.8977 76.6875L13.9943 78.6477L14.0625 78.6477L14.0625 74.5909L15 74.5909L15 80.0966ZM15.1193 69.9844C15.1193 70.6264 14.9446 71.1733 14.5952 71.625C14.2429 72.0767 13.733 72.4219 13.0653 72.6605C12.3949 72.8991 11.5852 73.0185 10.6364 73.0185C9.69318 73.0185 8.88778 72.8991 8.22017 72.6605C7.54972 72.419 7.03835 72.0724 6.68608 71.6207C6.33097 71.1662 6.15341 70.6207 6.15341 69.9844C6.15341 69.348 6.33096 68.804 6.68608 68.3523C7.03835 67.8977 7.54972 67.5511 8.22017 67.3125C8.88778 67.071 9.69318 66.9503 10.6364 66.9503C11.5852 66.9503 12.3949 67.0696 13.0653 67.3082C13.733 67.5469 14.2429 67.892 14.5952 68.3437C14.9446 68.7955 15.1193 69.3423 15.1193 69.9844ZM14.1818 69.9844C14.1818 69.348 13.875 68.8537 13.2614 68.5014C12.6477 68.1491 11.7727 67.973 10.6364 67.973C9.88068 67.973 9.23722 68.054 8.70596 68.2159C8.17471 68.375 7.76989 68.6051 7.49148 68.9062C7.21307 69.2045 7.07386 69.5639 7.07386 69.9844C7.07386 70.6151 7.38494 71.108 8.0071 71.4631C8.62642 71.8182 9.50284 71.9957 10.6364 71.9957C11.392 71.9957 12.0341 71.9162 12.5625 71.7571C13.0909 71.598 13.4929 71.3693 13.7685 71.071C14.044 70.7699 14.1818 70.4077 14.1818 69.9844ZM17.4545 61.9389L8.45454 61.9389L8.45454 60.9673L9.49432 60.9673L9.49432 60.848C9.38068 60.7741 9.23579 60.6719 9.05966 60.5412C8.88068 60.4077 8.72159 60.2173 8.58239 59.9702C8.44034 59.7202 8.36932 59.3821 8.36932 58.956C8.36932 58.4048 8.5071 57.919 8.78267 57.4986C9.05824 57.0781 9.44886 56.75 9.95454 56.5142C10.4602 56.2784 11.0568 56.1605 11.7443 56.1605C12.4375 56.1605 13.0384 56.2784 13.5469 56.5142C14.0526 56.75 14.4446 57.0767 14.723 57.4943C14.9986 57.9119 15.1364 58.3935 15.1364 58.9389C15.1364 59.3594 15.0668 59.696 14.9276 59.9489C14.7855 60.2017 14.625 60.3963 14.446 60.5327C14.2642 60.669 14.1136 60.7741 13.9943 60.848L13.9943 60.9332L17.4545 60.9332L17.4545 61.9389ZM11.7273 60.9503C12.2216 60.9503 12.6577 60.8778 13.0355 60.733C13.4105 60.5881 13.7045 60.3764 13.9176 60.098C14.1278 59.8196 14.233 59.4787 14.233 59.0753C14.233 58.6548 14.1222 58.304 13.9006 58.0227C13.6761 57.7386 13.375 57.5256 12.9972 57.3835C12.6165 57.2386 12.1932 57.1662 11.7273 57.1662C11.267 57.1662 10.8523 57.2372 10.483 57.3793C10.1108 57.5185 9.81676 57.7301 9.60085 58.0142C9.3821 58.2955 9.27273 58.6491 9.27273 59.0753C9.27273 59.4844 9.37642 59.8281 9.58381 60.1065C9.78835 60.3849 10.0753 60.5952 10.4446 60.7372C10.8111 60.8793 11.2386 60.9503 11.7273 60.9503ZM8.45454 54.146L11.1307 52.5778L8.45454 51.0096L8.45454 49.8505L11.7273 51.9641L15 49.8505L15 51.0096L12.4602 52.5778L15 54.146L15 55.305L11.7273 53.2255L8.45454 55.305L8.45454 54.146Z" fill="black"/>
<path d="M15 495.097L14.233 495.097L11.0795 492.216C10.7102 491.878 10.3892 491.599 10.1165 491.381C9.84091 491.162 9.58239 491 9.34091 490.895C9.09659 490.787 8.84091 490.733 8.57386 490.733C8.26705 490.733 8.00142 490.807 7.77699 490.955C7.55256 491.099 7.37926 491.298 7.2571 491.551C7.13494 491.804 7.07386 492.088 7.07386 492.403C7.07386 492.739 7.14347 493.031 7.28267 493.281C7.41903 493.528 7.61079 493.72 7.85795 493.857C8.10511 493.99 8.39489 494.057 8.72727 494.057L8.72727 495.062C8.21591 495.062 7.76705 494.945 7.38068 494.709C6.99432 494.473 6.69318 494.152 6.47727 493.746C6.26136 493.337 6.15341 492.878 6.15341 492.369C6.15341 491.858 6.26136 491.405 6.47727 491.01C6.69318 490.615 6.98437 490.305 7.35085 490.081C7.71733 489.857 8.125 489.744 8.57386 489.744C8.89489 489.744 9.20881 489.803 9.51562 489.919C9.8196 490.033 10.1591 490.232 10.5341 490.516C10.9062 490.797 11.3608 491.187 11.8977 491.687L13.9943 493.648L14.0625 493.648L14.0625 489.591L15 489.591L15 495.097ZM15.1193 484.984C15.1193 485.626 14.9446 486.173 14.5952 486.625C14.2429 487.077 13.733 487.422 13.0653 487.661C12.3949 487.899 11.5852 488.018 10.6364 488.018C9.69318 488.018 8.88778 487.899 8.22017 487.661C7.54972 487.419 7.03835 487.072 6.68608 486.621C6.33097 486.166 6.15341 485.621 6.15341 484.984C6.15341 484.348 6.33096 483.804 6.68608 483.352C7.03835 482.898 7.54972 482.551 8.22017 482.312C8.88778 482.071 9.69318 481.95 10.6364 481.95C11.5852 481.95 12.3949 482.07 13.0653 482.308C13.733 482.547 14.2429 482.892 14.5952 483.344C14.9446 483.795 15.1193 484.342 15.1193 484.984ZM14.1818 484.984C14.1818 484.348 13.875 483.854 13.2614 483.501C12.6477 483.149 11.7727 482.973 10.6364 482.973C9.88068 482.973 9.23722 483.054 8.70596 483.216C8.17471 483.375 7.76989 483.605 7.49148 483.906C7.21307 484.205 7.07386 484.564 7.07386 484.984C7.07386 485.615 7.38494 486.108 8.0071 486.463C8.62642 486.818 9.50284 486.996 10.6364 486.996C11.392 486.996 12.0341 486.916 12.5625 486.757C13.0909 486.598 13.4929 486.369 13.7685 486.071C14.044 485.77 14.1818 485.408 14.1818 484.984ZM17.4545 476.939L8.45454 476.939L8.45454 475.967L9.49432 475.967L9.49432 475.848C9.38068 475.774 9.23579 475.672 9.05966 475.541C8.88068 475.408 8.72159 475.217 8.58239 474.97C8.44034 474.72 8.36932 474.382 8.36932 473.956C8.36932 473.405 8.5071 472.919 8.78267 472.499C9.05824 472.078 9.44886 471.75 9.95454 471.514C10.4602 471.278 11.0568 471.161 11.7443 471.161C12.4375 471.161 13.0384 471.278 13.5469 471.514C14.0526 471.75 14.4446 472.077 14.723 472.494C14.9986 472.912 15.1364 473.393 15.1364 473.939C15.1364 474.359 15.0668 474.696 14.9276 474.949C14.7855 475.202 14.625 475.396 14.446 475.533C14.2642 475.669 14.1136 475.774 13.9943 475.848L13.9943 475.933L17.4545 475.933L17.4545 476.939ZM11.7273 475.95C12.2216 475.95 12.6577 475.878 13.0355 475.733C13.4105 475.588 13.7045 475.376 13.9176 475.098C14.1278 474.82 14.233 474.479 14.233 474.075C14.233 473.655 14.1222 473.304 13.9006 473.023C13.6761 472.739 13.375 472.526 12.9972 472.384C12.6165 472.239 12.1932 472.166 11.7273 472.166C11.267 472.166 10.8523 472.237 10.483 472.379C10.1108 472.518 9.81676 472.73 9.60085 473.014C9.3821 473.295 9.27273 473.649 9.27273 474.075C9.27273 474.484 9.37642 474.828 9.58381 475.107C9.78835 475.385 10.0753 475.595 10.4446 475.737C10.8111 475.879 11.2386 475.95 11.7273 475.95ZM8.45454 469.146L11.1307 467.578L8.45454 466.01L8.45454 464.85L11.7273 466.964L15 464.85L15 466.01L12.4602 467.578L15 469.146L15 470.305L11.7273 468.225L8.45454 470.305L8.45454 469.146Z" fill="black"/>
<path d="M1274 495.097L1273.23 495.097L1270.08 492.216C1269.71 491.878 1269.39 491.599 1269.12 491.381C1268.84 491.162 1268.58 491 1268.34 490.895C1268.1 490.787 1267.84 490.733 1267.57 490.733C1267.27 490.733 1267 490.807 1266.78 490.955C1266.55 491.099 1266.38 491.298 1266.26 491.551C1266.13 491.804 1266.07 492.088 1266.07 492.403C1266.07 492.739 1266.14 493.031 1266.28 493.281C1266.42 493.528 1266.61 493.72 1266.86 493.857C1267.11 493.99 1267.39 494.057 1267.73 494.057L1267.73 495.062C1267.22 495.062 1266.77 494.945 1266.38 494.709C1265.99 494.473 1265.69 494.152 1265.48 493.746C1265.26 493.337 1265.15 492.878 1265.15 492.369C1265.15 491.858 1265.26 491.405 1265.48 491.01C1265.69 490.615 1265.98 490.305 1266.35 490.081C1266.72 489.857 1267.12 489.744 1267.57 489.744C1267.89 489.744 1268.21 489.803 1268.52 489.919C1268.82 490.033 1269.16 490.232 1269.53 490.516C1269.91 490.797 1270.36 491.187 1270.9 491.687L1272.99 493.648L1273.06 493.648L1273.06 489.591L1274 489.591L1274 495.097ZM1274.12 484.984C1274.12 485.626 1273.94 486.173 1273.6 486.625C1273.24 487.077 1272.73 487.422 1272.07 487.661C1271.39 487.899 1270.59 488.018 1269.64 488.018C1268.69 488.018 1267.89 487.899 1267.22 487.661C1266.55 487.419 1266.04 487.072 1265.69 486.621C1265.33 486.166 1265.15 485.621 1265.15 484.984C1265.15 484.348 1265.33 483.804 1265.69 483.352C1266.04 482.898 1266.55 482.551 1267.22 482.312C1267.89 482.071 1268.69 481.95 1269.64 481.95C1270.59 481.95 1271.39 482.07 1272.07 482.308C1272.73 482.547 1273.24 482.892 1273.6 483.344C1273.94 483.795 1274.12 484.342 1274.12 484.984ZM1273.18 484.984C1273.18 484.348 1272.87 483.854 1272.26 483.501C1271.65 483.149 1270.77 482.973 1269.64 482.973C1268.88 482.973 1268.24 483.054 1267.71 483.216C1267.17 483.375 1266.77 483.605 1266.49 483.906C1266.21 484.205 1266.07 484.564 1266.07 484.984C1266.07 485.615 1266.38 486.108 1267.01 486.463C1267.63 486.818 1268.5 486.996 1269.64 486.996C1270.39 486.996 1271.03 486.916 1271.56 486.757C1272.09 486.598 1272.49 486.369 1272.77 486.071C1273.04 485.77 1273.18 485.408 1273.18 484.984ZM1276.45 476.939L1267.45 476.939L1267.45 475.967L1268.49 475.967L1268.49 475.848C1268.38 475.774 1268.24 475.672 1268.06 475.541C1267.88 475.408 1267.72 475.217 1267.58 474.97C1267.44 474.72 1267.37 474.382 1267.37 473.956C1267.37 473.405 1267.51 472.919 1267.78 472.499C1268.06 472.078 1268.45 471.75 1268.95 471.514C1269.46 471.278 1270.06 471.161 1270.74 471.161C1271.44 471.161 1272.04 471.278 1272.55 471.514C1273.05 471.75 1273.44 472.077 1273.72 472.494C1274 472.912 1274.14 473.393 1274.14 473.939C1274.14 474.359 1274.07 474.696 1273.93 474.949C1273.79 475.202 1273.62 475.396 1273.45 475.533C1273.26 475.669 1273.11 475.774 1272.99 475.848L1272.99 475.933L1276.45 475.933L1276.45 476.939ZM1270.73 475.95C1271.22 475.95 1271.66 475.878 1272.04 475.733C1272.41 475.588 1272.7 475.376 1272.92 475.098C1273.13 474.82 1273.23 474.479 1273.23 474.075C1273.23 473.655 1273.12 473.304 1272.9 473.023C1272.68 472.739 1272.37 472.526 1272 472.384C1271.62 472.239 1271.19 472.166 1270.73 472.166C1270.27 472.166 1269.85 472.237 1269.48 472.379C1269.11 472.518 1268.82 472.73 1268.6 473.014C1268.38 473.295 1268.27 473.649 1268.27 474.075C1268.27 474.484 1268.38 474.828 1268.58 475.107C1268.79 475.385 1269.08 475.595 1269.44 475.737C1269.81 475.879 1270.24 475.95 1270.73 475.95ZM1267.45 469.146L1270.13 467.578L1267.45 466.01L1267.45 464.85L1270.73 466.964L1274 464.85L1274 466.01L1271.46 467.578L1274 469.146L1274 470.305L1270.73 468.225L1267.45 470.305L1267.45 469.146Z" fill="black"/>
<path d="M54.9034 134V133.233L57.7841 130.08C58.1222 129.71 58.4006 129.389 58.6193 129.116C58.8381 128.841 59 128.582 59.1051 128.341C59.2131 128.097 59.267 127.841 59.267 127.574C59.267 127.267 59.1932 127.001 59.0455 126.777C58.9006 126.553 58.7017 126.379 58.4489 126.257C58.196 126.135 57.9119 126.074 57.5966 126.074C57.2614 126.074 56.9688 126.143 56.7188 126.283C56.4716 126.419 56.2798 126.611 56.1435 126.858C56.0099 127.105 55.9432 127.395 55.9432 127.727H54.9375C54.9375 127.216 55.0554 126.767 55.2912 126.381C55.527 125.994 55.848 125.693 56.2543 125.477C56.6634 125.261 57.1222 125.153 57.6307 125.153C58.142 125.153 58.5952 125.261 58.9901 125.477C59.3849 125.693 59.6946 125.984 59.919 126.351C60.1435 126.717 60.2557 127.125 60.2557 127.574C60.2557 127.895 60.1974 128.209 60.081 128.516C59.9673 128.82 59.7685 129.159 59.4844 129.534C59.2031 129.906 58.8125 130.361 58.3125 130.898L56.3523 132.994V133.062H60.4091V134H54.9034ZM65.0156 134.119C64.3736 134.119 63.8267 133.945 63.375 133.595C62.9233 133.243 62.5781 132.733 62.3395 132.065C62.1009 131.395 61.9815 130.585 61.9815 129.636C61.9815 128.693 62.1009 127.888 62.3395 127.22C62.581 126.55 62.9276 126.038 63.3793 125.686C63.8338 125.331 64.3793 125.153 65.0156 125.153C65.652 125.153 66.196 125.331 66.6477 125.686C67.1023 126.038 67.4489 126.55 67.6875 127.22C67.929 127.888 68.0497 128.693 68.0497 129.636C68.0497 130.585 67.9304 131.395 67.6918 132.065C67.4531 132.733 67.108 133.243 66.6562 133.595C66.2045 133.945 65.6577 134.119 65.0156 134.119ZM65.0156 133.182C65.652 133.182 66.1463 132.875 66.4986 132.261C66.8509 131.648 67.027 130.773 67.027 129.636C67.027 128.881 66.946 128.237 66.7841 127.706C66.625 127.175 66.3949 126.77 66.0938 126.491C65.7955 126.213 65.4361 126.074 65.0156 126.074C64.3849 126.074 63.892 126.385 63.5369 127.007C63.1818 127.626 63.0043 128.503 63.0043 129.636C63.0043 130.392 63.0838 131.034 63.2429 131.562C63.402 132.091 63.6307 132.493 63.929 132.768C64.2301 133.044 64.5923 133.182 65.0156 133.182ZM73.0611 136.455V127.455H74.0327V128.494H74.152C74.2259 128.381 74.3281 128.236 74.4588 128.06C74.5923 127.881 74.7827 127.722 75.0298 127.582C75.2798 127.44 75.6179 127.369 76.044 127.369C76.5952 127.369 77.081 127.507 77.5014 127.783C77.9219 128.058 78.25 128.449 78.4858 128.955C78.7216 129.46 78.8395 130.057 78.8395 130.744C78.8395 131.438 78.7216 132.038 78.4858 132.547C78.25 133.053 77.9233 133.445 77.5057 133.723C77.0881 133.999 76.6065 134.136 76.0611 134.136C75.6406 134.136 75.304 134.067 75.0511 133.928C74.7983 133.786 74.6037 133.625 74.4673 133.446C74.331 133.264 74.2259 133.114 74.152 132.994H74.0668V136.455H73.0611ZM74.0497 130.727C74.0497 131.222 74.1222 131.658 74.267 132.036C74.4119 132.411 74.6236 132.705 74.902 132.918C75.1804 133.128 75.5213 133.233 75.9247 133.233C76.3452 133.233 76.696 133.122 76.9773 132.901C77.2614 132.676 77.4744 132.375 77.6165 131.997C77.7614 131.616 77.8338 131.193 77.8338 130.727C77.8338 130.267 77.7628 129.852 77.6207 129.483C77.4815 129.111 77.2699 128.817 76.9858 128.601C76.7045 128.382 76.3509 128.273 75.9247 128.273C75.5156 128.273 75.1719 128.376 74.8935 128.584C74.6151 128.788 74.4048 129.075 74.2628 129.445C74.1207 129.811 74.0497 130.239 74.0497 130.727ZM80.854 127.455L82.4222 130.131L83.9904 127.455H85.1495L83.0359 130.727L85.1495 134H83.9904L82.4222 131.46L80.854 134H79.695L81.7745 130.727L79.695 127.455H80.854Z" fill="black"/>
</svg>
